<?xml version="1.0" encoding="UTF-8"?>
<svg xmlns="http://www.w3.org/2000/svg" xmlns:xlink="http://www.w3.org/1999/xlink" width="56.6929pt" height="56.6929pt" viewBox="0 0 56.6929 56.6929" version="1.1">
<g id="surface1">
<path style=" stroke:none;fill-rule:evenodd;fill:rgb(100%,100%,100%);fill-opacity:1;" d="M 28.441406 9.929688 C 33.554688 9.929688 38.1875 12.003906 41.539062 15.355469 C 44.894531 18.707031 46.964844 23.339844 46.964844 28.457031 C 46.964844 29.007812 46.941406 29.5625 46.890625 30.125 C 46.839844 30.6875 46.765625 31.238281 46.667969 31.78125 L 46.609375 32.105469 L 26.625 32.105469 L 26.625 24.65625 L 38.550781 24.65625 C 37.800781 22.667969 36.484375 20.960938 34.800781 19.726562 C 33.015625 18.425781 30.820312 17.660156 28.441406 17.660156 C 25.457031 17.660156 22.757812 18.867188 20.804688 20.820312 C 18.851562 22.773438 17.644531 25.472656 17.644531 28.457031 C 17.644531 30.183594 18.050781 31.816406 18.773438 33.265625 L 16.015625 39.929688 L 23.167969 37.878906 C 24.730469 38.753906 26.527344 39.25 28.441406 39.25 C 29.855469 39.25 31.203125 38.980469 32.4375 38.488281 C 33.71875 37.976562 34.878906 37.226562 35.867188 36.292969 L 36.085938 36.082031 L 36.34375 36.242188 L 42.390625 39.941406 L 42.785156 40.1875 L 42.484375 40.535156 C 40.753906 42.546875 38.597656 44.179688 36.15625 45.300781 C 33.804688 46.378906 31.191406 46.980469 28.441406 46.980469 C 23.324219 46.980469 18.691406 44.90625 15.339844 41.554688 C 11.988281 38.203125 9.914062 33.570312 9.914062 28.457031 C 9.914062 23.339844 11.988281 18.707031 15.339844 15.355469 C 18.691406 12.003906 23.324219 9.929688 28.441406 9.929688 "/>
</g>
</svg>
