<?xml version="1.0" encoding="UTF-8"?>
<svg xmlns="http://www.w3.org/2000/svg" xmlns:xlink="http://www.w3.org/1999/xlink" width="255.1181pt" height="85.0394pt" viewBox="0 0 255.1181 85.0394" version="1.1">
<g id="surface1">
<path style=" stroke:none;fill-rule:nonzero;fill:rgb(0%,0%,85.998535%);fill-opacity:1;" d="M 13.828125 37.292969 L 17.300781 37.292969 L 17.300781 15 L 13.828125 15 Z M 19.59375 37.292969 L 20.769531 37.292969 L 18.605469 15 L 17.425781 15 Z M 20.898438 37.292969 L 22.074219 37.292969 L 24.242188 15 L 23.0625 15 Z M 24.367188 37.292969 L 27.871094 37.292969 L 27.871094 15 L 24.367188 15 Z M 24.367188 37.292969 "/>
<path style=" stroke:none;fill-rule:nonzero;fill:rgb(0%,0%,85.998535%);fill-opacity:1;" d="M 37.519531 15 L 37.519531 32.164062 C 37.527344 32.917969 37.683594 33.613281 37.988281 34.261719 C 38.296875 34.902344 38.710938 35.464844 39.234375 35.945312 C 39.761719 36.425781 40.359375 36.804688 41.027344 37.074219 C 41.695312 37.339844 42.390625 37.476562 43.125 37.484375 C 43.855469 37.476562 44.558594 37.339844 45.222656 37.074219 C 45.890625 36.804688 46.488281 36.425781 47.015625 35.945312 C 47.539062 35.464844 47.953125 34.902344 48.261719 34.261719 C 48.566406 33.613281 48.722656 32.917969 48.730469 32.164062 L 48.730469 15 L 45.226562 15 L 45.226562 32.039062 C 45.222656 32.445312 45.113281 32.800781 44.90625 33.109375 C 44.703125 33.421875 44.441406 33.667969 44.121094 33.84375 C 43.804688 34.019531 43.46875 34.101562 43.125 34.109375 C 42.78125 34.101562 42.445312 34.019531 42.128906 33.84375 C 41.808594 33.667969 41.546875 33.421875 41.339844 33.109375 C 41.132812 32.800781 41.027344 32.445312 41.023438 32.039062 L 41.023438 15 Z M 37.519531 15 "/>
<path style=" stroke:none;fill-rule:nonzero;fill:rgb(0%,0%,85.998535%);fill-opacity:1;" d="M 59.523438 15 L 59.523438 37.292969 L 63.027344 37.292969 L 63.027344 15 Z M 63.15625 15 L 66.46875 37.292969 L 67.675781 37.292969 L 64.363281 15 Z M 67.804688 15 L 67.804688 37.292969 L 71.308594 37.292969 L 71.308594 15 Z M 67.804688 15 "/>
<path style=" stroke:none;fill-rule:nonzero;fill:rgb(0%,0%,85.998535%);fill-opacity:1;" d="M 82.929688 36.050781 L 82.929688 37.292969 L 92.453125 37.292969 L 92.453125 36.050781 L 89.425781 36.050781 L 89.425781 16.242188 L 92.453125 16.242188 L 92.453125 15 L 82.929688 15 L 82.929688 16.242188 L 85.921875 16.242188 L 85.921875 36.050781 Z M 82.929688 36.050781 "/>
<path style=" stroke:none;fill-rule:nonzero;fill:rgb(0%,0%,85.998535%);fill-opacity:1;" d="M 19.082031 46.65625 L 14.273438 68.949219 L 16.058594 68.949219 L 17.554688 61.910156 L 24.050781 61.910156 L 25.578125 68.949219 L 27.363281 68.949219 L 22.617188 46.65625 L 20.898438 46.65625 L 23.761719 60.320312 L 17.839844 60.320312 L 20.769531 46.65625 Z M 19.082031 46.65625 "/>
<path style=" stroke:none;fill-rule:nonzero;fill:rgb(0%,0%,85.998535%);fill-opacity:1;" d="M 38.125 46.65625 L 38.125 68.949219 L 39.84375 68.949219 L 39.84375 59.523438 L 42.742188 59.523438 L 48.027344 68.949219 L 50.003906 68.949219 L 44.558594 59.332031 C 45.214844 59.273438 45.828125 59.097656 46.390625 58.816406 C 46.957031 58.535156 47.449219 58.160156 47.878906 57.699219 C 48.304688 57.234375 48.632812 56.710938 48.871094 56.117188 C 49.113281 55.519531 49.234375 54.882812 49.238281 54.207031 L 49.238281 51.976562 C 49.234375 51.242188 49.089844 50.558594 48.8125 49.921875 C 48.539062 49.28125 48.15625 48.71875 47.667969 48.230469 C 47.179688 47.742188 46.613281 47.359375 45.976562 47.082031 C 45.339844 46.800781 44.652344 46.664062 43.921875 46.65625 Z M 43.761719 57.898438 L 39.84375 57.898438 L 39.84375 48.25 L 43.761719 48.25 C 44.277344 48.25 44.757812 48.351562 45.214844 48.542969 C 45.667969 48.734375 46.070312 49 46.421875 49.339844 C 46.769531 49.683594 47.046875 50.082031 47.25 50.53125 C 47.445312 50.988281 47.546875 51.476562 47.550781 52.007812 L 47.550781 54.015625 C 47.546875 54.785156 47.375 55.457031 47.042969 56.042969 C 46.710938 56.621094 46.261719 57.078125 45.695312 57.398438 C 45.125 57.730469 44.476562 57.894531 43.761719 57.898438 "/>
<path style=" stroke:none;fill-rule:nonzero;fill:rgb(0%,0%,85.998535%);fill-opacity:1;" d="M 64.554688 48.25 L 64.554688 68.949219 L 66.277344 68.949219 L 66.277344 48.25 L 72.230469 48.25 L 72.230469 46.65625 L 58.601562 46.65625 L 58.601562 48.25 Z M 64.554688 48.25 "/>
<path style=" stroke:none;fill-rule:nonzero;fill:rgb(0%,0%,85.998535%);fill-opacity:1;" d="M 87.707031 69.140625 C 88.476562 69.136719 89.191406 69.007812 89.855469 68.753906 C 90.519531 68.5 91.105469 68.132812 91.609375 67.664062 C 92.113281 67.191406 92.503906 66.636719 92.785156 65.980469 C 93.066406 65.335938 93.210938 64.613281 93.214844 63.820312 L 93.214844 62.453125 C 93.210938 61.730469 93.097656 61.09375 92.882812 60.546875 C 92.664062 60 92.371094 59.535156 92.007812 59.140625 C 91.640625 58.742188 91.230469 58.414062 90.78125 58.148438 C 90.328125 57.878906 89.871094 57.660156 89.398438 57.496094 C 88.933594 57.324219 88.480469 57.199219 88.058594 57.101562 C 87.5625 56.996094 87.074219 56.859375 86.59375 56.6875 C 86.105469 56.519531 85.664062 56.296875 85.261719 56.019531 C 84.855469 55.738281 84.53125 55.382812 84.289062 54.941406 C 84.050781 54.507812 83.921875 53.960938 83.917969 53.3125 L 83.917969 51.816406 C 83.921875 51.296875 84.023438 50.8125 84.226562 50.367188 C 84.433594 49.917969 84.707031 49.527344 85.058594 49.195312 C 85.414062 48.855469 85.816406 48.59375 86.269531 48.410156 C 86.71875 48.21875 87.203125 48.121094 87.707031 48.121094 C 88.207031 48.121094 88.679688 48.21875 89.136719 48.410156 C 89.585938 48.59375 89.988281 48.855469 90.34375 49.195312 C 90.695312 49.527344 90.976562 49.917969 91.183594 50.367188 C 91.390625 50.8125 91.492188 51.296875 91.496094 51.816406 L 91.496094 52.613281 L 93.214844 52.613281 L 93.214844 51.785156 C 93.210938 51.015625 93.066406 50.308594 92.785156 49.660156 C 92.503906 49.019531 92.113281 48.457031 91.609375 47.980469 C 91.105469 47.5 90.519531 47.128906 89.855469 46.863281 C 89.191406 46.605469 88.476562 46.472656 87.707031 46.46875 C 86.9375 46.472656 86.222656 46.605469 85.558594 46.863281 C 84.894531 47.128906 84.308594 47.5 83.804688 47.980469 C 83.300781 48.457031 82.910156 49.019531 82.628906 49.660156 C 82.347656 50.308594 82.203125 51.015625 82.199219 51.785156 L 82.199219 53.3125 C 82.203125 54.054688 82.320312 54.703125 82.542969 55.257812 C 82.765625 55.8125 83.0625 56.285156 83.433594 56.679688 C 83.800781 57.070312 84.214844 57.398438 84.660156 57.660156 C 85.105469 57.921875 85.5625 58.132812 86.019531 58.292969 C 86.476562 58.449219 86.898438 58.578125 87.292969 58.664062 C 87.808594 58.769531 88.3125 58.90625 88.8125 59.078125 C 89.304688 59.246094 89.753906 59.46875 90.160156 59.75 C 90.5625 60.03125 90.886719 60.394531 91.125 60.835938 C 91.367188 61.28125 91.492188 61.828125 91.496094 62.484375 L 91.496094 63.789062 C 91.492188 64.308594 91.390625 64.792969 91.1875 65.238281 C 90.988281 65.683594 90.710938 66.078125 90.359375 66.410156 C 90.011719 66.746094 89.605469 67.011719 89.160156 67.199219 C 88.710938 67.386719 88.238281 67.480469 87.738281 67.484375 C 87.234375 67.480469 86.75 67.386719 86.296875 67.199219 C 85.839844 67.011719 85.429688 66.746094 85.074219 66.410156 C 84.71875 66.078125 84.4375 65.683594 84.230469 65.238281 C 84.027344 64.792969 83.921875 64.308594 83.917969 63.789062 L 83.917969 63.058594 L 82.199219 63.058594 L 82.199219 63.820312 C 82.203125 64.613281 82.347656 65.335938 82.628906 65.980469 C 82.910156 66.636719 83.300781 67.191406 83.804688 67.664062 C 84.308594 68.132812 84.894531 68.5 85.558594 68.753906 C 86.222656 69.007812 86.9375 69.136719 87.707031 69.140625 "/>
<path style=" stroke:none;fill-rule:nonzero;fill:rgb(0%,0%,85.998535%);fill-opacity:1;" d="M 110.261719 14.523438 C 109.617188 14.523438 109.039062 14.632812 108.527344 14.851562 C 108.015625 15.066406 107.582031 15.382812 107.222656 15.792969 C 106.859375 16.203125 106.585938 16.699219 106.394531 17.285156 C 106.207031 17.867188 106.109375 18.527344 106.109375 19.261719 C 106.109375 19.996094 106.203125 20.65625 106.394531 21.242188 C 106.582031 21.824219 106.855469 22.324219 107.210938 22.734375 C 107.566406 23.144531 108 23.457031 108.503906 23.671875 C 109.011719 23.886719 109.585938 23.996094 110.222656 24 C 110.964844 23.996094 111.613281 23.863281 112.164062 23.597656 C 112.714844 23.335938 113.152344 22.949219 113.476562 22.445312 C 113.800781 21.941406 113.996094 21.332031 114.058594 20.609375 L 112.132812 20.609375 C 112.085938 20.980469 111.980469 21.292969 111.8125 21.554688 C 111.648438 21.808594 111.429688 22.003906 111.164062 22.140625 C 110.894531 22.273438 110.582031 22.34375 110.222656 22.34375 C 109.769531 22.339844 109.382812 22.21875 109.058594 21.972656 C 108.734375 21.726562 108.484375 21.371094 108.308594 20.914062 C 108.132812 20.457031 108.046875 19.902344 108.046875 19.261719 C 108.046875 18.621094 108.136719 18.070312 108.316406 17.609375 C 108.492188 17.152344 108.746094 16.800781 109.074219 16.550781 C 109.40625 16.304688 109.800781 16.179688 110.261719 16.175781 C 110.617188 16.175781 110.925781 16.246094 111.191406 16.382812 C 111.457031 16.515625 111.671875 16.710938 111.832031 16.964844 C 111.992188 17.214844 112.09375 17.515625 112.132812 17.871094 L 114.019531 17.871094 C 113.996094 17.375 113.890625 16.921875 113.710938 16.515625 C 113.527344 16.105469 113.273438 15.753906 112.945312 15.457031 C 112.621094 15.160156 112.234375 14.929688 111.78125 14.769531 C 111.328125 14.605469 110.824219 14.523438 110.261719 14.523438 "/>
<path style=" stroke:none;fill-rule:nonzero;fill:rgb(0%,0%,85.998535%);fill-opacity:1;" d="M 118.46875 22.738281 C 118.210938 22.738281 117.976562 22.683594 117.761719 22.566406 C 117.546875 22.449219 117.371094 22.257812 117.238281 21.992188 C 117.101562 21.726562 117.023438 21.371094 117.003906 20.929688 L 121.652344 20.929688 C 121.652344 20.578125 121.636719 20.265625 121.605469 20 C 121.570312 19.734375 121.519531 19.492188 121.449219 19.273438 C 121.3125 18.832031 121.105469 18.453125 120.824219 18.128906 C 120.542969 17.808594 120.203125 17.5625 119.804688 17.386719 C 119.402344 17.210938 118.957031 17.121094 118.457031 17.121094 C 117.949219 17.121094 117.496094 17.210938 117.101562 17.382812 C 116.703125 17.550781 116.367188 17.792969 116.09375 18.097656 C 115.816406 18.40625 115.609375 18.761719 115.464844 19.171875 C 115.320312 19.582031 115.246094 20.027344 115.246094 20.507812 C 115.246094 21.027344 115.320312 21.496094 115.464844 21.925781 C 115.609375 22.351562 115.816406 22.71875 116.09375 23.027344 C 116.371094 23.335938 116.707031 23.578125 117.105469 23.742188 C 117.503906 23.910156 117.960938 23.996094 118.46875 24 C 118.902344 23.996094 119.292969 23.9375 119.644531 23.828125 C 119.992188 23.714844 120.300781 23.558594 120.566406 23.359375 C 120.832031 23.164062 121.046875 22.933594 121.214844 22.671875 C 121.382812 22.410156 121.5 22.128906 121.566406 21.832031 L 119.742188 21.832031 C 119.714844 22.007812 119.640625 22.164062 119.53125 22.300781 C 119.421875 22.4375 119.277344 22.542969 119.097656 22.617188 C 118.917969 22.699219 118.707031 22.734375 118.46875 22.738281 Z M 118.457031 18.382812 C 118.695312 18.382812 118.914062 18.429688 119.113281 18.53125 C 119.316406 18.632812 119.480469 18.792969 119.613281 19 C 119.742188 19.214844 119.832031 19.480469 119.871094 19.808594 L 117.042969 19.808594 C 117.09375 19.480469 117.179688 19.214844 117.308594 19 C 117.441406 18.792969 117.601562 18.632812 117.796875 18.53125 C 117.992188 18.429688 118.210938 18.382812 118.457031 18.382812 "/>
<path style=" stroke:none;fill-rule:nonzero;fill:rgb(0%,0%,85.998535%);fill-opacity:1;" d="M 126.792969 17.171875 C 126.515625 17.171875 126.261719 17.214844 126.027344 17.292969 C 125.789062 17.375 125.578125 17.488281 125.390625 17.632812 C 125.199219 17.777344 125.035156 17.945312 124.894531 18.140625 L 124.867188 18.140625 L 124.867188 17.324219 L 123.199219 17.324219 L 123.199219 23.792969 L 124.984375 23.792969 L 124.984375 20.332031 C 124.984375 19.941406 125.039062 19.613281 125.148438 19.355469 C 125.257812 19.09375 125.410156 18.898438 125.597656 18.769531 C 125.789062 18.636719 126.007812 18.574219 126.257812 18.574219 C 126.613281 18.570312 126.886719 18.683594 127.085938 18.917969 C 127.289062 19.148438 127.390625 19.511719 127.390625 20 L 127.390625 23.792969 L 129.175781 23.792969 L 129.175781 19.820312 C 129.171875 19.234375 129.074219 18.746094 128.878906 18.351562 C 128.6875 17.957031 128.410156 17.664062 128.054688 17.46875 C 127.699219 17.269531 127.277344 17.171875 126.792969 17.171875 "/>
<path style=" stroke:none;fill-rule:nonzero;fill:rgb(0%,0%,85.998535%);fill-opacity:1;" d="M 133.90625 22.457031 C 133.601562 22.460938 133.386719 22.386719 133.253906 22.226562 C 133.125 22.074219 133.058594 21.816406 133.066406 21.464844 L 133.066406 18.648438 L 134.300781 18.648438 L 134.300781 17.324219 L 133.066406 17.324219 L 133.066406 15.644531 L 131.28125 15.644531 L 131.28125 17.324219 L 130.238281 17.324219 L 130.238281 18.648438 L 131.28125 18.648438 L 131.28125 21.78125 C 131.28125 22.28125 131.355469 22.6875 131.503906 22.996094 C 131.65625 23.304688 131.886719 23.53125 132.203125 23.675781 C 132.519531 23.816406 132.925781 23.886719 133.421875 23.882812 C 133.523438 23.882812 133.632812 23.878906 133.75 23.867188 C 133.863281 23.855469 133.972656 23.839844 134.078125 23.824219 C 134.1875 23.804688 134.28125 23.78125 134.363281 23.757812 L 134.363281 22.394531 C 134.304688 22.414062 134.234375 22.425781 134.152344 22.441406 C 134.074219 22.449219 133.992188 22.457031 133.90625 22.457031 "/>
<path style=" stroke:none;fill-rule:nonzero;fill:rgb(0%,0%,85.998535%);fill-opacity:1;" d="M 139.222656 17.222656 C 138.839844 17.21875 138.503906 17.304688 138.210938 17.46875 C 137.921875 17.632812 137.664062 17.894531 137.453125 18.242188 L 137.425781 18.242188 L 137.425781 17.324219 L 135.78125 17.324219 L 135.78125 23.792969 L 137.566406 23.792969 L 137.566406 20.738281 C 137.566406 20.097656 137.710938 19.613281 137.996094 19.28125 C 138.28125 18.945312 138.699219 18.777344 139.246094 18.777344 C 139.335938 18.777344 139.425781 18.78125 139.515625 18.792969 C 139.609375 18.804688 139.707031 18.820312 139.808594 18.839844 L 139.808594 17.296875 C 139.714844 17.273438 139.617188 17.253906 139.515625 17.242188 C 139.410156 17.226562 139.3125 17.222656 139.222656 17.222656 "/>
<path style=" stroke:none;fill-rule:nonzero;fill:rgb(0%,0%,85.998535%);fill-opacity:1;" d="M 143.328125 23.949219 C 143.605469 23.945312 143.863281 23.90625 144.09375 23.824219 C 144.332031 23.742188 144.542969 23.628906 144.730469 23.484375 C 144.921875 23.339844 145.085938 23.171875 145.226562 22.980469 L 145.253906 22.980469 L 145.253906 23.792969 L 146.921875 23.792969 L 146.921875 17.324219 L 145.136719 17.324219 L 145.136719 20.789062 C 145.136719 21.179688 145.082031 21.503906 144.972656 21.765625 C 144.863281 22.027344 144.714844 22.222656 144.523438 22.351562 C 144.332031 22.480469 144.113281 22.546875 143.863281 22.546875 C 143.507812 22.546875 143.234375 22.433594 143.035156 22.199219 C 142.835938 21.96875 142.734375 21.609375 142.730469 21.121094 L 142.730469 17.324219 L 140.945312 17.324219 L 140.945312 21.296875 C 140.949219 21.882812 141.046875 22.375 141.242188 22.765625 C 141.433594 23.15625 141.710938 23.453125 142.066406 23.652344 C 142.421875 23.847656 142.84375 23.949219 143.328125 23.949219 "/>
<path style=" stroke:none;fill-rule:nonzero;fill:rgb(0%,0%,85.998535%);fill-opacity:1;" d="M 156.378906 17.171875 C 156.046875 17.171875 155.761719 17.21875 155.507812 17.304688 C 155.257812 17.394531 155.039062 17.523438 154.84375 17.6875 C 154.648438 17.851562 154.472656 18.046875 154.3125 18.28125 C 154.132812 17.917969 153.882812 17.640625 153.558594 17.453125 C 153.234375 17.265625 152.84375 17.171875 152.390625 17.171875 C 152.007812 17.167969 151.667969 17.242188 151.378906 17.386719 C 151.089844 17.53125 150.824219 17.757812 150.59375 18.0625 L 150.570312 18.0625 L 150.570312 17.324219 L 148.886719 17.324219 L 148.886719 23.792969 L 150.671875 23.792969 L 150.671875 20.46875 C 150.671875 19.859375 150.773438 19.394531 150.972656 19.066406 C 151.171875 18.738281 151.46875 18.574219 151.855469 18.574219 C 152.1875 18.574219 152.441406 18.6875 152.613281 18.917969 C 152.789062 19.144531 152.875 19.46875 152.875 19.882812 L 152.875 23.792969 L 154.65625 23.792969 L 154.65625 20.46875 C 154.660156 19.855469 154.761719 19.386719 154.964844 19.0625 C 155.164062 18.738281 155.457031 18.574219 155.84375 18.574219 C 156.160156 18.570312 156.40625 18.683594 156.585938 18.917969 C 156.765625 19.148438 156.859375 19.511719 156.863281 20 L 156.863281 23.792969 L 158.644531 23.792969 L 158.644531 19.820312 C 158.644531 19.234375 158.550781 18.746094 158.367188 18.351562 C 158.183594 17.957031 157.921875 17.664062 157.582031 17.46875 C 157.242188 17.269531 156.84375 17.171875 156.378906 17.171875 "/>
<path style=" stroke:none;fill-rule:nonzero;fill:rgb(0%,0%,85.998535%);fill-opacity:1;" d="M 109.40625 52.765625 C 109.105469 52.769531 108.886719 52.695312 108.757812 52.539062 C 108.625 52.382812 108.5625 52.128906 108.566406 51.773438 L 108.566406 48.957031 L 109.804688 48.957031 L 109.804688 47.632812 L 108.566406 47.632812 L 108.566406 45.953125 L 106.785156 45.953125 L 106.785156 47.632812 L 105.738281 47.632812 L 105.738281 48.957031 L 106.785156 48.957031 L 106.785156 52.089844 C 106.785156 52.589844 106.859375 52.996094 107.007812 53.304688 C 107.15625 53.613281 107.390625 53.839844 107.707031 53.984375 C 108.023438 54.125 108.429688 54.195312 108.921875 54.195312 C 109.027344 54.195312 109.136719 54.1875 109.25 54.175781 C 109.367188 54.164062 109.476562 54.152344 109.582031 54.132812 C 109.691406 54.113281 109.785156 54.089844 109.867188 54.066406 L 109.867188 52.703125 C 109.808594 52.722656 109.738281 52.738281 109.65625 52.75 C 109.574219 52.761719 109.492188 52.765625 109.40625 52.765625 "/>
<path style=" stroke:none;fill-rule:nonzero;fill:rgb(0%,0%,85.998535%);fill-opacity:1;" d="M 113.910156 53.046875 C 113.652344 53.050781 113.414062 52.992188 113.199219 52.875 C 112.984375 52.757812 112.8125 52.566406 112.679688 52.300781 C 112.542969 52.035156 112.464844 51.683594 112.445312 51.238281 L 117.09375 51.238281 C 117.09375 50.886719 117.078125 50.574219 117.046875 50.308594 C 117.011719 50.042969 116.960938 49.800781 116.890625 49.582031 C 116.753906 49.144531 116.542969 48.761719 116.265625 48.441406 C 115.984375 48.121094 115.644531 47.871094 115.246094 47.695312 C 114.84375 47.519531 114.394531 47.429688 113.898438 47.429688 C 113.390625 47.429688 112.9375 47.519531 112.539062 47.691406 C 112.144531 47.859375 111.808594 48.101562 111.53125 48.40625 C 111.257812 48.714844 111.046875 49.074219 110.902344 49.484375 C 110.761719 49.890625 110.6875 50.339844 110.6875 50.816406 C 110.6875 51.335938 110.761719 51.808594 110.902344 52.234375 C 111.046875 52.660156 111.257812 53.027344 111.535156 53.335938 C 111.808594 53.644531 112.148438 53.886719 112.546875 54.054688 C 112.945312 54.222656 113.398438 54.304688 113.910156 54.308594 C 114.339844 54.304688 114.730469 54.25 115.082031 54.136719 C 115.433594 54.023438 115.742188 53.867188 116.007812 53.667969 C 116.269531 53.472656 116.488281 53.242188 116.65625 52.980469 C 116.824219 52.71875 116.941406 52.441406 117.003906 52.140625 L 115.183594 52.140625 C 115.152344 52.320312 115.082031 52.472656 114.972656 52.609375 C 114.859375 52.746094 114.714844 52.851562 114.539062 52.929688 C 114.359375 53.007812 114.148438 53.042969 113.910156 53.046875 Z M 113.898438 48.691406 C 114.136719 48.691406 114.355469 48.738281 114.554688 48.839844 C 114.753906 48.941406 114.917969 49.101562 115.050781 49.308594 C 115.183594 49.523438 115.269531 49.789062 115.3125 50.117188 L 112.484375 50.117188 C 112.53125 49.789062 112.621094 49.523438 112.75 49.308594 C 112.878906 49.101562 113.042969 48.941406 113.238281 48.839844 C 113.433594 48.738281 113.652344 48.691406 113.898438 48.691406 "/>
<path style=" stroke:none;fill-rule:nonzero;fill:rgb(0%,0%,85.998535%);fill-opacity:1;" d="M 121.609375 47.429688 C 121.113281 47.429688 120.664062 47.511719 120.265625 47.671875 C 119.867188 47.832031 119.523438 48.0625 119.238281 48.367188 C 118.953125 48.667969 118.730469 49.027344 118.578125 49.449219 C 118.425781 49.871094 118.347656 50.34375 118.347656 50.867188 C 118.347656 51.394531 118.425781 51.863281 118.578125 52.285156 C 118.730469 52.710938 118.953125 53.070312 119.238281 53.371094 C 119.523438 53.671875 119.867188 53.902344 120.265625 54.0625 C 120.664062 54.226562 121.113281 54.304688 121.609375 54.308594 C 122.191406 54.304688 122.707031 54.1875 123.144531 53.964844 C 123.585938 53.738281 123.9375 53.417969 124.199219 53.007812 C 124.460938 52.601562 124.617188 52.121094 124.664062 51.570312 L 122.792969 51.570312 C 122.777344 51.851562 122.714844 52.09375 122.613281 52.296875 C 122.511719 52.5 122.371094 52.65625 122.199219 52.765625 C 122.027344 52.875 121.828125 52.929688 121.59375 52.933594 C 121.308594 52.929688 121.058594 52.847656 120.851562 52.679688 C 120.644531 52.515625 120.484375 52.277344 120.375 51.96875 C 120.265625 51.664062 120.207031 51.296875 120.207031 50.867188 C 120.207031 50.441406 120.265625 50.074219 120.375 49.765625 C 120.484375 49.457031 120.644531 49.222656 120.851562 49.058594 C 121.058594 48.890625 121.308594 48.808594 121.59375 48.804688 C 121.828125 48.804688 122.027344 48.855469 122.199219 48.957031 C 122.375 49.054688 122.511719 49.195312 122.617188 49.378906 C 122.71875 49.566406 122.785156 49.785156 122.804688 50.039062 L 124.664062 50.039062 C 124.628906 49.660156 124.53125 49.308594 124.375 48.992188 C 124.214844 48.675781 124.003906 48.398438 123.738281 48.164062 C 123.472656 47.933594 123.164062 47.753906 122.804688 47.625 C 122.445312 47.496094 122.046875 47.429688 121.609375 47.429688 "/>
<path style=" stroke:none;fill-rule:nonzero;fill:rgb(0%,0%,85.998535%);fill-opacity:1;" d="M 127.945312 48.347656 L 127.945312 45.035156 L 126.160156 45.035156 L 126.160156 54.105469 L 127.945312 54.105469 L 127.945312 50.640625 C 127.945312 50.246094 128 49.917969 128.109375 49.65625 C 128.21875 49.398438 128.367188 49.203125 128.558594 49.074219 C 128.75 48.945312 128.96875 48.882812 129.21875 48.882812 C 129.570312 48.878906 129.847656 48.992188 130.046875 49.226562 C 130.246094 49.457031 130.347656 49.820312 130.351562 50.308594 L 130.351562 54.105469 L 132.132812 54.105469 L 132.132812 50.128906 C 132.132812 49.542969 132.035156 49.054688 131.839844 48.660156 C 131.644531 48.269531 131.371094 47.972656 131.015625 47.777344 C 130.660156 47.582031 130.238281 47.480469 129.753906 47.480469 C 129.40625 47.480469 129.078125 47.550781 128.777344 47.691406 C 128.46875 47.835938 128.199219 48.054688 127.96875 48.347656 Z M 127.945312 48.347656 "/>
<path style=" stroke:none;fill-rule:nonzero;fill:rgb(0%,0%,85.998535%);fill-opacity:1;" d="M 137.628906 47.480469 C 137.355469 47.484375 137.097656 47.523438 136.863281 47.605469 C 136.628906 47.683594 136.414062 47.800781 136.226562 47.941406 C 136.039062 48.085938 135.871094 48.253906 135.730469 48.449219 L 135.707031 48.449219 L 135.707031 47.632812 L 134.039062 47.632812 L 134.039062 54.105469 L 135.820312 54.105469 L 135.820312 50.640625 C 135.824219 50.25 135.878906 49.925781 135.988281 49.664062 C 136.09375 49.402344 136.246094 49.207031 136.4375 49.078125 C 136.628906 48.949219 136.847656 48.882812 137.09375 48.882812 C 137.449219 48.878906 137.726562 48.992188 137.925781 49.226562 C 138.125 49.457031 138.226562 49.820312 138.230469 50.308594 L 138.230469 54.105469 L 140.011719 54.105469 L 140.011719 50.128906 C 140.007812 49.542969 139.914062 49.054688 139.71875 48.660156 C 139.523438 48.269531 139.246094 47.972656 138.894531 47.777344 C 138.539062 47.582031 138.117188 47.480469 137.628906 47.480469 "/>
<path style=" stroke:none;fill-rule:nonzero;fill:rgb(0%,0%,85.998535%);fill-opacity:1;" d="M 144.804688 47.429688 C 144.128906 47.433594 143.542969 47.574219 143.046875 47.855469 C 142.554688 48.132812 142.171875 48.527344 141.902344 49.042969 C 141.636719 49.558594 141.5 50.164062 141.496094 50.867188 C 141.5 51.574219 141.636719 52.179688 141.902344 52.695312 C 142.171875 53.207031 142.554688 53.601562 143.046875 53.882812 C 143.542969 54.164062 144.128906 54.304688 144.804688 54.308594 C 145.484375 54.304688 146.070312 54.164062 146.566406 53.882812 C 147.058594 53.601562 147.441406 53.207031 147.710938 52.695312 C 147.976562 52.179688 148.113281 51.574219 148.117188 50.867188 C 148.113281 50.164062 147.976562 49.558594 147.710938 49.042969 C 147.441406 48.527344 147.058594 48.132812 146.566406 47.855469 C 146.070312 47.574219 145.484375 47.433594 144.804688 47.429688 Z M 144.804688 48.804688 C 145.101562 48.808594 145.355469 48.890625 145.570312 49.058594 C 145.785156 49.226562 145.949219 49.464844 146.066406 49.773438 C 146.1875 50.082031 146.242188 50.445312 146.246094 50.867188 C 146.242188 51.292969 146.1875 51.65625 146.066406 51.964844 C 145.949219 52.273438 145.785156 52.511719 145.570312 52.675781 C 145.355469 52.84375 145.101562 52.929688 144.804688 52.933594 C 144.511719 52.929688 144.257812 52.84375 144.042969 52.675781 C 143.828125 52.511719 143.660156 52.273438 143.546875 51.964844 C 143.429688 51.65625 143.371094 51.292969 143.367188 50.867188 C 143.371094 50.445312 143.429688 50.082031 143.546875 49.773438 C 143.660156 49.464844 143.828125 49.226562 144.042969 49.058594 C 144.257812 48.890625 144.511719 48.808594 144.804688 48.804688 "/>
<path style=" stroke:none;fill-rule:nonzero;fill:rgb(0%,0%,85.998535%);fill-opacity:1;" d="M 151.449219 54.105469 L 151.449219 45.035156 L 149.664062 45.035156 L 149.664062 54.105469 Z M 151.449219 54.105469 "/>
<path style=" stroke:none;fill-rule:nonzero;fill:rgb(0%,0%,85.998535%);fill-opacity:1;" d="M 156.304688 47.429688 C 155.625 47.433594 155.039062 47.574219 154.546875 47.855469 C 154.054688 48.132812 153.671875 48.527344 153.402344 49.042969 C 153.132812 49.558594 153 50.164062 152.996094 50.867188 C 153 51.574219 153.132812 52.179688 153.402344 52.695312 C 153.671875 53.207031 154.054688 53.601562 154.546875 53.882812 C 155.039062 54.164062 155.625 54.304688 156.304688 54.308594 C 156.984375 54.304688 157.570312 54.164062 158.066406 53.882812 C 158.558594 53.601562 158.941406 53.207031 159.210938 52.695312 C 159.476562 52.179688 159.613281 51.574219 159.617188 50.867188 C 159.613281 50.164062 159.476562 49.558594 159.210938 49.042969 C 158.941406 48.527344 158.558594 48.132812 158.066406 47.855469 C 157.570312 47.574219 156.984375 47.433594 156.304688 47.429688 Z M 156.304688 48.804688 C 156.601562 48.808594 156.855469 48.890625 157.070312 49.058594 C 157.285156 49.226562 157.449219 49.464844 157.566406 49.773438 C 157.6875 50.082031 157.742188 50.445312 157.746094 50.867188 C 157.742188 51.292969 157.6875 51.65625 157.566406 51.964844 C 157.449219 52.273438 157.285156 52.511719 157.070312 52.675781 C 156.855469 52.84375 156.601562 52.929688 156.304688 52.933594 C 156.011719 52.929688 155.757812 52.84375 155.542969 52.675781 C 155.328125 52.511719 155.160156 52.273438 155.042969 51.964844 C 154.929688 51.65625 154.867188 51.292969 154.867188 50.867188 C 154.867188 50.445312 154.929688 50.082031 155.042969 49.773438 C 155.160156 49.464844 155.328125 49.226562 155.542969 49.058594 C 155.757812 48.890625 156.011719 48.808594 156.304688 48.804688 "/>
<path style=" stroke:none;fill-rule:nonzero;fill:rgb(0%,0%,85.998535%);fill-opacity:1;" d="M 163.546875 47.453125 C 163 47.460938 162.527344 47.59375 162.128906 47.859375 C 161.730469 48.125 161.421875 48.503906 161.203125 48.992188 C 160.984375 49.484375 160.875 50.066406 160.871094 50.742188 C 160.875 51.417969 160.984375 52 161.199219 52.488281 C 161.414062 52.980469 161.71875 53.355469 162.117188 53.621094 C 162.511719 53.890625 162.980469 54.023438 163.519531 54.027344 C 163.90625 54.03125 164.246094 53.953125 164.535156 53.796875 C 164.824219 53.640625 165.089844 53.394531 165.328125 53.058594 L 165.355469 53.058594 L 165.355469 53.632812 C 165.355469 54.050781 165.300781 54.382812 165.195312 54.625 C 165.089844 54.871094 164.941406 55.042969 164.75 55.148438 C 164.554688 55.253906 164.324219 55.304688 164.054688 55.300781 C 163.714844 55.300781 163.449219 55.230469 163.257812 55.09375 C 163.0625 54.957031 162.957031 54.761719 162.933594 54.511719 L 161.152344 54.511719 C 161.183594 54.9375 161.316406 55.304688 161.542969 55.613281 C 161.769531 55.921875 162.089844 56.15625 162.503906 56.324219 C 162.917969 56.492188 163.421875 56.574219 164.015625 56.574219 C 164.640625 56.574219 165.179688 56.472656 165.640625 56.265625 C 166.097656 56.058594 166.453125 55.742188 166.703125 55.3125 C 166.957031 54.890625 167.082031 54.351562 167.085938 53.695312 L 167.085938 47.632812 L 165.40625 47.632812 L 165.40625 48.5 L 165.378906 48.5 C 165.21875 48.253906 165.042969 48.054688 164.859375 47.902344 C 164.675781 47.746094 164.476562 47.632812 164.261719 47.5625 C 164.046875 47.488281 163.808594 47.453125 163.546875 47.453125 Z M 164.03125 48.917969 C 164.3125 48.921875 164.554688 49 164.761719 49.148438 C 164.964844 49.296875 165.125 49.511719 165.234375 49.78125 C 165.347656 50.054688 165.402344 50.375 165.40625 50.742188 C 165.402344 51.109375 165.347656 51.429688 165.234375 51.699219 C 165.125 51.972656 164.964844 52.183594 164.761719 52.332031 C 164.554688 52.484375 164.3125 52.5625 164.03125 52.5625 C 163.765625 52.5625 163.535156 52.484375 163.34375 52.339844 C 163.148438 52.195312 163 51.984375 162.890625 51.710938 C 162.785156 51.441406 162.734375 51.117188 162.730469 50.742188 C 162.734375 50.367188 162.785156 50.042969 162.890625 49.769531 C 163 49.5 163.148438 49.289062 163.34375 49.144531 C 163.535156 48.996094 163.765625 48.921875 164.03125 48.917969 "/>
<path style=" stroke:none;fill-rule:nonzero;fill:rgb(0%,0%,85.998535%);fill-opacity:1;" d="M 170.835938 46.5625 L 170.835938 45.035156 L 169.054688 45.035156 L 169.054688 46.5625 Z M 170.835938 54.105469 L 170.835938 47.632812 L 169.054688 47.632812 L 169.054688 54.105469 Z M 170.835938 54.105469 "/>
<path style=" stroke:none;fill-rule:nonzero;fill:rgb(0%,0%,85.998535%);fill-opacity:1;" d="M 174.015625 46.894531 L 175.796875 45.035156 L 173.59375 45.035156 L 172.613281 46.894531 Z M 174.585938 54.105469 L 174.585938 47.632812 L 172.804688 47.632812 L 172.804688 54.105469 Z M 174.585938 54.105469 "/>
<path style=" stroke:none;fill-rule:nonzero;fill:rgb(0%,0%,85.998535%);fill-opacity:1;" d="M 108.285156 31.410156 L 108.285156 29.878906 L 106.503906 29.878906 L 106.503906 31.410156 Z M 108.285156 38.949219 L 108.285156 32.480469 L 106.503906 32.480469 L 106.503906 38.949219 Z M 108.285156 38.949219 "/>
<path style=" stroke:none;fill-rule:nonzero;fill:rgb(0%,0%,85.998535%);fill-opacity:1;" d="M 113.847656 32.324219 C 113.570312 32.328125 113.316406 32.367188 113.078125 32.449219 C 112.84375 32.53125 112.632812 32.644531 112.441406 32.789062 C 112.253906 32.933594 112.085938 33.101562 111.949219 33.292969 L 111.921875 33.292969 L 111.921875 32.480469 L 110.253906 32.480469 L 110.253906 38.949219 L 112.035156 38.949219 L 112.035156 35.484375 C 112.039062 35.09375 112.09375 34.769531 112.203125 34.507812 C 112.3125 34.246094 112.460938 34.050781 112.652344 33.921875 C 112.84375 33.792969 113.0625 33.726562 113.3125 33.726562 C 113.664062 33.726562 113.941406 33.839844 114.140625 34.074219 C 114.339844 34.304688 114.441406 34.664062 114.445312 35.152344 L 114.445312 38.949219 L 116.226562 38.949219 L 116.226562 34.976562 C 116.226562 34.390625 116.128906 33.898438 115.933594 33.507812 C 115.738281 33.113281 115.464844 32.820312 115.109375 32.625 C 114.753906 32.425781 114.332031 32.324219 113.847656 32.324219 "/>
<path style=" stroke:none;fill-rule:nonzero;fill:rgb(0%,0%,85.998535%);fill-opacity:1;" d="M 121.0625 31.101562 C 121.121094 31.101562 121.175781 31.105469 121.234375 31.113281 C 121.292969 31.117188 121.339844 31.128906 121.378906 31.140625 L 121.378906 29.878906 C 121.304688 29.863281 121.21875 29.847656 121.121094 29.832031 C 121.023438 29.816406 120.921875 29.804688 120.816406 29.792969 C 120.707031 29.78125 120.605469 29.777344 120.5 29.777344 C 119.804688 29.777344 119.273438 29.953125 118.910156 30.304688 C 118.546875 30.65625 118.363281 31.1875 118.359375 31.894531 L 118.359375 32.480469 L 117.289062 32.480469 L 117.289062 33.804688 L 118.359375 33.804688 L 118.359375 38.949219 L 120.117188 38.949219 L 120.117188 33.804688 L 121.339844 33.804688 L 121.339844 32.480469 L 120.117188 32.480469 L 120.117188 32.109375 C 120.117188 31.863281 120.152344 31.667969 120.222656 31.519531 C 120.292969 31.371094 120.398438 31.265625 120.539062 31.199219 C 120.679688 31.132812 120.851562 31.101562 121.0625 31.101562 "/>
<path style=" stroke:none;fill-rule:nonzero;fill:rgb(0%,0%,85.998535%);fill-opacity:1;" d="M 125.308594 32.273438 C 124.628906 32.28125 124.042969 32.417969 123.550781 32.699219 C 123.054688 32.980469 122.671875 33.375 122.402344 33.886719 C 122.136719 34.402344 122 35.007812 121.996094 35.714844 C 122 36.417969 122.136719 37.027344 122.402344 37.539062 C 122.671875 38.054688 123.054688 38.449219 123.550781 38.730469 C 124.042969 39.007812 124.628906 39.148438 125.308594 39.152344 C 125.988281 39.148438 126.574219 39.007812 127.066406 38.730469 C 127.558594 38.449219 127.941406 38.054688 128.210938 37.539062 C 128.480469 37.027344 128.613281 36.417969 128.621094 35.714844 C 128.613281 35.007812 128.480469 34.402344 128.210938 33.886719 C 127.941406 33.375 127.558594 32.980469 127.066406 32.699219 C 126.574219 32.417969 125.988281 32.28125 125.308594 32.273438 Z M 125.308594 33.652344 C 125.601562 33.652344 125.855469 33.738281 126.070312 33.90625 C 126.285156 34.074219 126.453125 34.3125 126.570312 34.617188 C 126.6875 34.925781 126.746094 35.292969 126.746094 35.714844 C 126.746094 36.136719 126.6875 36.5 126.570312 36.808594 C 126.453125 37.117188 126.285156 37.355469 126.070312 37.523438 C 125.855469 37.691406 125.601562 37.777344 125.308594 37.777344 C 125.011719 37.777344 124.757812 37.691406 124.542969 37.523438 C 124.328125 37.355469 124.164062 37.117188 124.046875 36.808594 C 123.929688 36.5 123.871094 36.136719 123.867188 35.714844 C 123.871094 35.292969 123.929688 34.925781 124.046875 34.617188 C 124.164062 34.3125 124.328125 34.074219 124.542969 33.90625 C 124.757812 33.738281 125.011719 33.652344 125.308594 33.652344 "/>
<path style=" stroke:none;fill-rule:nonzero;fill:rgb(0%,0%,85.998535%);fill-opacity:1;" d="M 133.605469 32.375 C 133.222656 32.375 132.886719 32.457031 132.59375 32.625 C 132.304688 32.789062 132.050781 33.046875 131.835938 33.394531 L 131.808594 33.394531 L 131.808594 32.480469 L 130.164062 32.480469 L 130.164062 38.949219 L 131.949219 38.949219 L 131.949219 35.890625 C 131.949219 35.253906 132.09375 34.765625 132.378906 34.433594 C 132.664062 34.101562 133.082031 33.933594 133.628906 33.929688 C 133.71875 33.929688 133.808594 33.9375 133.898438 33.949219 C 133.992188 33.957031 134.089844 33.976562 134.191406 33.996094 L 134.191406 32.453125 C 134.097656 32.429688 134 32.410156 133.898438 32.394531 C 133.792969 32.382812 133.695312 32.375 133.605469 32.375 "/>
<path style=" stroke:none;fill-rule:nonzero;fill:rgb(0%,0%,85.998535%);fill-opacity:1;" d="M 142.882812 32.324219 C 142.554688 32.324219 142.265625 32.371094 142.015625 32.460938 C 141.765625 32.546875 141.542969 32.675781 141.347656 32.839844 C 141.15625 33.003906 140.980469 33.203125 140.820312 33.433594 C 140.640625 33.070312 140.390625 32.792969 140.0625 32.609375 C 139.738281 32.421875 139.351562 32.324219 138.894531 32.324219 C 138.511719 32.324219 138.175781 32.394531 137.882812 32.542969 C 137.59375 32.6875 137.332031 32.910156 137.101562 33.21875 L 137.074219 33.21875 L 137.074219 32.480469 L 135.394531 32.480469 L 135.394531 38.949219 L 137.175781 38.949219 L 137.175781 35.625 C 137.175781 35.015625 137.277344 34.546875 137.476562 34.222656 C 137.675781 33.894531 137.972656 33.730469 138.359375 33.726562 C 138.695312 33.730469 138.945312 33.84375 139.117188 34.074219 C 139.292969 34.300781 139.378906 34.621094 139.378906 35.039062 L 139.378906 38.949219 L 141.164062 38.949219 L 141.164062 35.625 C 141.164062 35.011719 141.269531 34.542969 141.46875 34.21875 C 141.671875 33.890625 141.964844 33.730469 142.347656 33.726562 C 142.664062 33.726562 142.914062 33.839844 143.089844 34.074219 C 143.273438 34.304688 143.363281 34.664062 143.367188 35.152344 L 143.367188 38.949219 L 145.152344 38.949219 L 145.152344 34.976562 C 145.148438 34.390625 145.054688 33.898438 144.871094 33.507812 C 144.6875 33.113281 144.425781 32.820312 144.089844 32.625 C 143.75 32.425781 143.347656 32.324219 142.882812 32.324219 "/>
<path style=" stroke:none;fill-rule:nonzero;fill:rgb(0%,0%,85.998535%);fill-opacity:1;" d="M 149.589844 32.273438 C 149.128906 32.277344 148.722656 32.335938 148.378906 32.449219 C 148.035156 32.5625 147.75 32.722656 147.519531 32.925781 C 147.285156 33.128906 147.113281 33.367188 146.992188 33.632812 C 146.871094 33.902344 146.800781 34.191406 146.785156 34.503906 L 148.519531 34.503906 C 148.535156 34.195312 148.632812 33.957031 148.816406 33.785156 C 149 33.613281 149.253906 33.527344 149.589844 33.523438 C 149.796875 33.519531 149.980469 33.5625 150.140625 33.640625 C 150.296875 33.714844 150.421875 33.839844 150.511719 34.007812 C 150.597656 34.179688 150.644531 34.398438 150.644531 34.667969 L 150.644531 34.898438 C 150.503906 34.90625 150.34375 34.921875 150.152344 34.9375 C 149.964844 34.957031 149.769531 34.980469 149.570312 35.003906 C 149.375 35.027344 149.195312 35.050781 149.027344 35.078125 C 148.5625 35.148438 148.167969 35.25 147.84375 35.375 C 147.523438 35.5 147.265625 35.648438 147.070312 35.824219 C 146.875 35.996094 146.734375 36.195312 146.648438 36.414062 C 146.5625 36.632812 146.515625 36.875 146.519531 37.140625 C 146.519531 37.519531 146.609375 37.855469 146.785156 38.148438 C 146.960938 38.441406 147.210938 38.671875 147.539062 38.84375 C 147.867188 39.011719 148.261719 39.097656 148.722656 39.101562 C 149.171875 39.101562 149.570312 39.019531 149.925781 38.851562 C 150.28125 38.683594 150.578125 38.425781 150.824219 38.082031 L 150.847656 38.082031 C 150.847656 38.242188 150.855469 38.394531 150.871094 38.535156 C 150.882812 38.675781 150.90625 38.816406 150.9375 38.949219 L 152.542969 38.949219 C 152.503906 38.808594 152.472656 38.648438 152.445312 38.476562 C 152.421875 38.308594 152.398438 38.117188 152.386719 37.902344 C 152.371094 37.691406 152.367188 37.449219 152.367188 37.179688 L 152.367188 34.835938 C 152.367188 33.988281 152.132812 33.347656 151.664062 32.921875 C 151.199219 32.492188 150.507812 32.273438 149.589844 32.273438 Z M 150.644531 36.222656 C 150.648438 36.417969 150.636719 36.589844 150.617188 36.738281 C 150.597656 36.882812 150.5625 37.015625 150.507812 37.132812 C 150.453125 37.25 150.378906 37.359375 150.277344 37.460938 C 150.144531 37.585938 149.988281 37.679688 149.808594 37.738281 C 149.628906 37.800781 149.445312 37.828125 149.257812 37.828125 C 149.050781 37.828125 148.871094 37.792969 148.734375 37.722656 C 148.589844 37.65625 148.480469 37.5625 148.410156 37.441406 C 148.339844 37.320312 148.300781 37.175781 148.300781 37.011719 C 148.300781 36.757812 148.378906 36.558594 148.546875 36.417969 C 148.714844 36.28125 148.980469 36.179688 149.347656 36.121094 C 149.476562 36.101562 149.617188 36.082031 149.769531 36.0625 C 149.917969 36.046875 150.074219 36.027344 150.222656 36.015625 C 150.375 36 150.515625 35.988281 150.644531 35.980469 Z M 150.644531 36.222656 "/>
<path style=" stroke:none;fill-rule:nonzero;fill:rgb(0%,0%,85.998535%);fill-opacity:1;" d="M 158.039062 31.738281 L 159.492188 29.878906 L 157.859375 29.878906 L 157.097656 30.847656 L 156.320312 29.878906 L 154.6875 29.878906 L 156.140625 31.738281 Z M 157.097656 32.273438 C 156.601562 32.277344 156.152344 32.359375 155.753906 32.519531 C 155.351562 32.679688 155.011719 32.910156 154.726562 33.210938 C 154.441406 33.511719 154.21875 33.875 154.066406 34.296875 C 153.914062 34.714844 153.835938 35.191406 153.835938 35.714844 C 153.835938 36.238281 153.914062 36.710938 154.066406 37.132812 C 154.21875 37.554688 154.441406 37.914062 154.726562 38.21875 C 155.011719 38.519531 155.351562 38.746094 155.753906 38.910156 C 156.152344 39.070312 156.601562 39.152344 157.097656 39.152344 C 157.679688 39.148438 158.195312 39.035156 158.632812 38.808594 C 159.074219 38.582031 159.425781 38.265625 159.6875 37.855469 C 159.949219 37.445312 160.105469 36.964844 160.152344 36.414062 L 158.28125 36.414062 C 158.265625 36.695312 158.203125 36.9375 158.101562 37.140625 C 158 37.34375 157.859375 37.5 157.6875 37.613281 C 157.515625 37.71875 157.316406 37.777344 157.082031 37.777344 C 156.792969 37.777344 156.546875 37.691406 156.339844 37.523438 C 156.132812 37.359375 155.972656 37.125 155.863281 36.816406 C 155.753906 36.507812 155.695312 36.140625 155.695312 35.714844 C 155.695312 35.289062 155.753906 34.921875 155.863281 34.613281 C 155.972656 34.304688 156.132812 34.070312 156.339844 33.902344 C 156.546875 33.734375 156.792969 33.652344 157.082031 33.652344 C 157.316406 33.652344 157.515625 33.703125 157.6875 33.800781 C 157.863281 33.902344 158 34.042969 158.105469 34.226562 C 158.207031 34.410156 158.273438 34.628906 158.292969 34.886719 L 160.152344 34.886719 C 160.117188 34.507812 160.019531 34.15625 159.863281 33.839844 C 159.703125 33.519531 159.492188 33.246094 159.226562 33.011719 C 158.960938 32.777344 158.648438 32.597656 158.292969 32.46875 C 157.933594 32.339844 157.535156 32.277344 157.097656 32.273438 "/>
<path style=" stroke:none;fill-rule:nonzero;fill:rgb(0%,0%,85.998535%);fill-opacity:1;" d="M 165.242188 32.324219 C 164.964844 32.328125 164.710938 32.367188 164.472656 32.449219 C 164.238281 32.53125 164.027344 32.644531 163.835938 32.789062 C 163.648438 32.933594 163.484375 33.101562 163.34375 33.292969 L 163.316406 33.292969 L 163.316406 32.480469 L 161.648438 32.480469 L 161.648438 38.949219 L 163.433594 38.949219 L 163.433594 35.484375 C 163.433594 35.09375 163.488281 34.769531 163.597656 34.507812 C 163.707031 34.246094 163.855469 34.050781 164.046875 33.921875 C 164.238281 33.792969 164.457031 33.726562 164.707031 33.726562 C 165.058594 33.726562 165.335938 33.839844 165.535156 34.074219 C 165.734375 34.304688 165.835938 34.664062 165.839844 35.152344 L 165.839844 38.949219 L 167.621094 38.949219 L 167.621094 34.976562 C 167.621094 34.390625 167.523438 33.898438 167.328125 33.507812 C 167.132812 33.113281 166.859375 32.820312 166.503906 32.625 C 166.148438 32.425781 165.726562 32.324219 165.242188 32.324219 "/>
<path style=" stroke:none;fill-rule:nonzero;fill:rgb(0%,0%,85.998535%);fill-opacity:1;" d="M 170.734375 31.738281 L 172.519531 29.878906 L 170.316406 29.878906 L 169.335938 31.738281 Z M 171.308594 38.949219 L 171.308594 32.480469 L 169.527344 32.480469 L 169.527344 38.949219 Z M 171.308594 38.949219 "/>
<path style=" stroke:none;fill-rule:nonzero;fill:rgb(0%,0%,85.998535%);fill-opacity:1;" d="M 176.117188 32.273438 C 175.621094 32.277344 175.171875 32.359375 174.773438 32.519531 C 174.375 32.679688 174.03125 32.910156 173.746094 33.210938 C 173.460938 33.511719 173.238281 33.875 173.085938 34.296875 C 172.933594 34.714844 172.859375 35.191406 172.855469 35.714844 C 172.859375 36.238281 172.933594 36.710938 173.085938 37.132812 C 173.238281 37.554688 173.460938 37.914062 173.746094 38.21875 C 174.03125 38.519531 174.375 38.746094 174.773438 38.910156 C 175.171875 39.070312 175.621094 39.152344 176.117188 39.152344 C 176.699219 39.148438 177.214844 39.035156 177.652344 38.808594 C 178.09375 38.582031 178.445312 38.265625 178.707031 37.855469 C 178.96875 37.445312 179.125 36.964844 179.171875 36.414062 L 177.300781 36.414062 C 177.285156 36.695312 177.222656 36.9375 177.121094 37.140625 C 177.019531 37.34375 176.878906 37.5 176.707031 37.613281 C 176.535156 37.71875 176.335938 37.777344 176.101562 37.777344 C 175.816406 37.777344 175.566406 37.691406 175.359375 37.523438 C 175.152344 37.359375 174.992188 37.125 174.882812 36.816406 C 174.773438 36.507812 174.714844 36.140625 174.714844 35.714844 C 174.714844 35.289062 174.773438 34.921875 174.882812 34.613281 C 174.992188 34.304688 175.152344 34.070312 175.359375 33.902344 C 175.566406 33.734375 175.816406 33.652344 176.101562 33.652344 C 176.335938 33.652344 176.535156 33.703125 176.707031 33.800781 C 176.882812 33.902344 177.019531 34.042969 177.125 34.226562 C 177.230469 34.410156 177.292969 34.628906 177.3125 34.886719 L 179.171875 34.886719 C 179.136719 34.507812 179.039062 34.15625 178.882812 33.839844 C 178.722656 33.519531 178.511719 33.246094 178.246094 33.011719 C 177.984375 32.777344 177.671875 32.597656 177.3125 32.46875 C 176.953125 32.339844 176.554688 32.277344 176.117188 32.273438 "/>
<path style=" stroke:none;fill-rule:nonzero;fill:rgb(0%,0%,85.998535%);fill-opacity:1;" d="M 182.453125 33.191406 L 182.453125 29.878906 L 180.667969 29.878906 L 180.667969 38.949219 L 182.453125 38.949219 L 182.453125 35.484375 C 182.453125 35.089844 182.507812 34.761719 182.617188 34.5 C 182.726562 34.242188 182.875 34.046875 183.066406 33.921875 C 183.257812 33.789062 183.476562 33.726562 183.726562 33.726562 C 184.082031 33.726562 184.355469 33.839844 184.554688 34.074219 C 184.753906 34.304688 184.855469 34.664062 184.859375 35.152344 L 184.859375 38.949219 L 186.644531 38.949219 L 186.644531 34.976562 C 186.640625 34.390625 186.542969 33.898438 186.347656 33.507812 C 186.15625 33.113281 185.878906 32.820312 185.523438 32.625 C 185.167969 32.425781 184.746094 32.324219 184.261719 32.324219 C 183.914062 32.324219 183.585938 32.394531 183.285156 32.539062 C 182.980469 32.683594 182.710938 32.898438 182.476562 33.191406 Z M 182.453125 33.191406 "/>
</g>
</svg>
